# xmcd
#
# Track frame offsets:
#	150
#	17862
#	38342
#	55967
#	75887
#	94220
#	115465
#	133865
#	153265
#	169270
#	188625
#	211365
#	230177
#	248442
#	265227
#
# Disc length: 3620 seconds
#
# Revision: 19
# Processed by: cddbd v1.5.2PL0 Copyright (c) Steve Scherf et al.
# Submitted via: EZCDAudioConverter 8.2.2.1
#
DISCID=c20e220f
DTITLE=ZEZÉ DI CAMARGO and LUCIANO - AO VIVO [CD 2-495606) COLUMBIA [CD 02)
DYEAR=2000
DGENRE=Sertanejo
TTITLE0=IRRESISTÍVEL (AO VIVO) (BY GILMAR SINISTRO)
TTITLE1=CADA VOLTA É UM RECOMEÇO (AO VIVO) (BY GILMAR SINISTRO)
TTITLE2=VOCÊ VAI VER (AO VIVO) (BY GILMAR SINISTRO)
TTITLE3=SERÁ QUE FOI SAUDADE? (AO VIVO) (BY GILMAR SINISTRO)
TTITLE4=CORAÇÃO ESTÁ EM PEDAÇOS (AO VIVO) (BY GILMAR SINISTRO)
TTITLE5=FELICIDADE QUE SAUDADE DE VOCÊ (AO VIVO) (BY GILMAR SINISTRO)
TTITLE6=MENINA VENENO (AO VIVO) (BY GILMAR SINISTRO)
TTITLE7=AMOR SELVAGEM (AO VIVO) (BY GILMAR SINISTRO)
TTITLE8=SALVA MEU CORAÇÃO (AO VIVO) (BY GILMAR SINISTRO)
TTITLE9=SAUDADE BANDIDA (AO VIVO) (BY GILMAR SINISTRO)
TTITLE10=PRA NÃO PENSAR EM VOCÊ (AO VIVO) (BY GILMAR SINISTRO)
TTITLE11=VEM CUIDAR DE MIM (AO VIVO) (BY GILMAR SINISTRO)
TTITLE12=TOMA JUÍZO (AO VIVO) (BY GILMAR SINISTRO)
TTITLE13=MEXE QUE É BOM (AO VIVO) (BY GILMAR SINISTRO)
TTITLE14=ENCERRAMENTO (AO VIVO) (BY GILMAR SINISTRO)
EXTD=
EXTT0=
EXTT1=
EXTT2=
EXTT3=
EXTT4=
EXTT5=
EXTT6=
EXTT7=
EXTT8=
EXTT9=
EXTT10=
EXTT11=
EXTT12=
EXTT13=
EXTT14=
PLAYORDER=
